<?xml version="1.0" standalone="no"?><!DOCTYPE svg PUBLIC "-//W3C//DTD SVG 1.1//EN" "http://www.w3.org/Graphics/SVG/1.1/DTD/svg11.dtd"><svg t="1719972064497" class="icon" viewBox="0 0 1024 1024" version="1.1" xmlns="http://www.w3.org/2000/svg" p-id="10517" xmlns:xlink="http://www.w3.org/1999/xlink" width="200" height="200"><path d="M473.112 27h83.884c7.516 16.284 22.584 6.384 33.648 8.6 47.888 9.604 94.348 22.576 138.328 44.3 53.06 26.212 101.484 58.468 140.604 103.496-5.672-0.032-11.34-0.088-17.016-0.088-25.752 0.02-38.848 12.652-40.096 38.768-0.384 8.128-1.876 16.352-2.12 24.232-0.94 30.34-14.112 58.648-13.584 89.06-22.688-8.364-45.536-15.728-70.16-15.712-142.972 0.088-285.944-0.304-428.916 0.244-43.396 0.164-81.048 16.9-113.164 45.956-35.16 31.816-52.484 72.44-58.272 118.704-15.028-3.188-21.544-16.892-31.612-26.048-21.604-19.652-32.44-21.78-58.344-9.584-2.704 1.272-6.176 0.916-9.292 1.308v-11.44c5.476-0.492 6.756-3.928 7.676-8.94 20.808-112.912 74.812-206.768 162.304-281.208C273.66 83.408 361.552 44.1 462.228 34.704c5.46-0.508 10.216-0.932 10.884-7.704z" fill="#EFEFEF" p-id="10518"></path><path d="M972.084 682.852C945.556 759.48 899.876 823.3 839.62 876.584c-72.54 64.148-157.424 102.5-253.084 117.804-9.732 1.564-23.232-5.548-29.54 8.72h-7.624c-22.88-6.78-45.756-6.78-68.636 0h-7.624c-0.68-10.416-8.972-6.736-14.424-7.4-47.98-5.812-94.568-16.552-138.164-38.18 0.324-10.784-9.676-12.56-15.804-17.124-20.288-15.14-40.952-29.612-51.996-53.728-4.396-9.588-7.696-19.264-1.492-28.8 6.836-10.512 18-8.08 27.76-6.384 34.156 5.904 68.468 9.876 103.14 10.58 0.508 12.704 9.808 10.408 17.768 10.444 47.292 0.244 94.584 0.484 141.872 0.732 0.756 16.316-13.58 13.48-21.656 14.816-46.712 7.744-93.688 13.632-141.252 12.172-10.78-0.332-21.612-0.42-32.356 0.312-7.036 0.476-14.112 3.104-17.168 10.18-3.312 7.66 1.76 12.92 6.672 18.308 17.968 19.692 40.964 31.552 64.928 41.628 44.372 18.656 91.224 17.272 138.184 17.588 48.244 0.32 93.204-12.572 137.872-28.032 35.184-12.18 66.308-32.24 98.592-50.316 42.68-23.896 72.256-61.336 103.74-96.2 25.54-28.292 38.504-64.82 43.02-103.468 0.728-6.2-0.264-11.056-4.692-15.544-5.536-5.628-10.532-2.096-15.452 0.504-4.452 2.336-8.976 4.844-12.772 8.088-20.136 17.264-39.364 35.664-60.188 52.048-49.432 38.896-102.724 71.524-161.216 95.208 1.372-13.92-4.932-18.204-18.54-17.072-14.228 1.18-28.648 0.032-42.972-0.104-1.404-10.344 4.632-14.1 13.42-17.272 49.612-17.86 96.412-41.652 139.744-71.564 66.064-45.58 122.752-100.904 168.736-167.02 11.62-16.724 21.008-15.344 30.808 2.144 16.232 28.96 12.176 59.62 7.968 90.228-0.812 5.924-3.936 11.28 4.892 12.972z" fill="#B1B1B1" p-id="10519"></path><path d="M1003.104 595.124c-14.404 2.196-3.04 17.664-11.74 22.792-10.588-2.076-7.336-10.648-7.132-16.844a168.084 168.084 0 0 0-7.48-56.028c-5.248-16.936-39.984-28.796-49.46-14.908-12.348 18.104-30.148 32.324-38.696 52.784-21.744 52.08-56.424 90.688-110.788 109.652-3.508 1.232-7.52 2.376-10.048 4.84-38.792 37.88-87.064 59.888-135.584 81.536-41.184 18.376-84.1 30.54-128.484 38.352-7.592 1.34-21.116-0.288-19.072 15.132-33.108 0.324-66.224 0.632-99.332 0.952-12.14-7.88-25.38-10.996-39.8-9.524-17.252 1.764-33.884-2.872-50.672-5.46-26.172-4.028-51.988-9.736-77.628-16.508-8.8-2.32-19.208-3.6-26.4 5.432-5.416 6.808-5.084 14.552-0.94 21.404 14.988 24.812 26.752 51.808 48.948 71.796 6.404 5.772 14.412 11.112 13.272 21.74-29.928-17.34-56.236-39.224-80.188-64.032 2.208-16.632-10.676-26.448-18.096-38.412-13.384-21.592-21.64-44.18-20-69.872 0.892-13.892 8.904-19.172 21.736-16.948 6.748 1.168 13.28 4.104 19.656 6.828 58.06 24.828 119.184 37.604 181.684 41.712 96.292 6.316 188.7-12.396 276.584-51.792 16.004-7.164 35.404-10.504 45.612-27.828 10.028-0.008 20.068-0.376 30.064 0.048 17.12 0.732 26.54-8.124 31.008-23.7 1.272-0.924 2.54-1.86 3.808-2.784 65.808-8.996 111.684-44.26 138.26-104.94 7.98-10.864 7.564-23.976 9.74-36.392 0.556-5.296 0.644-10.74 4.716-14.92l106.456-0.368v53.38c-4.48 3.812-5.644 7.624 0 11.44l-0.004 11.44z" fill="#C1C1C1" p-id="10520"></path><path d="M41.928 625.748c-9.684-9.432-0.412-27.092-14.928-34.432v-72.444l99.576-1.1 4.46 16.76c3.128 11.444 0.124 24.736 10.28 34.052 23.72 64.168 72.292 97.3 137.296 109.904l23.024-0.864c19.04 0.248 38.084 0.648 57.132 0.72 100.384 0.344 200.764 0.608 301.148 0.908-0.856 8.076-7.528 9.18-13.42 11.212-5.932 2.048-12.492 3.344-13.336 11.36l-64.72 0.08c-90.632 0-181.264 0.532-271.888-0.26-38.524-0.332-73.7-13.376-101.628-40.172-28.404-27.256-57.108-53.576-90.492-74.9-25.448-16.252-41.344-11.684-51.788 17.544-2.692 7.504-3.084 16.452-10.716 21.632z" fill="#E0E0E0" p-id="10521"></path><path d="M991.524 412.124c1.652 9.848-1.512 21.792 11.584 26.672v22.876c-0.488 0.38-1.46 0.904-1.396 1.096 0.32 0.956 0.908 1.82 1.396 2.716v41.944l-3.744 2.928-11.36-0.312c1.652-22.988-6.38-43.136-18.52-61.96-6.44-9.988-12.532-20.976-26.868-20.588-13.464 0.364-13.352 13.32-18.772 21.076-7.9 11.312-8.02 28.916-26.004 32.044-2.148-20.032-8.708-38.956-14.668-58.028 8.956-11.804 13.88-25.368 18.44-39.32 3.78-11.584 5.22-26.036 21.468-28.196 16.204-2.156 26.656 6 36.752 18.256 10.604 12.88 16.816 29.46 31.692 38.796z" fill="#CCCCCC" p-id="10522"></path><path d="M27 450.236c3.116-0.392 6.588-0.036 9.292-1.308 25.904-12.192 36.74-10.064 58.344 9.584 10.068 9.156 16.584 22.86 31.612 26.048l1.104 11.292-1.436 11.572-3.584 3.324-91.528-0.044-3.8-3.28L27 450.236z" fill="#E0E0E0" p-id="10523"></path><path d="M988.004 510.044c3.784 0.1 7.576 0.208 11.36 0.316l3.744 0.884v7.624l-106.456 0.368c-0.356-4.128-0.72-8.264-1.084-12.392l1.98-4.096c0.912 0.104 1.76 0.4 2.548 0.88 0.056 1.252 0.104 2.508 0.164 3.764 29.04 7.556 58.484 2.12 87.744 2.652z m-957.204 0.664l91.528 0.044c1.296 0.204 2.584 0.412 3.88 0.612l0.364 6.404-99.576 1.1v-7.624c1.268-0.184 2.536-0.356 3.804-0.536z" fill="#66605F" p-id="10524"></path><path d="M1003.104 583.688c-5.644-3.816-4.48-7.628 0-11.44v11.44z" fill="#FEFEFE" p-id="10525"></path><path d="M1003.104 511.244l-3.744-0.884 3.744-2.928v3.812z" fill="#C1C1C1" p-id="10526"></path><path d="M30.8 510.708c-1.264 0.18-2.532 0.352-3.8 0.536v-3.816l3.8 3.28z" fill="#D2D2D2" p-id="10527"></path><path d="M1003.104 465.484c-0.488-0.896-1.076-1.76-1.396-2.716-0.068-0.192 0.908-0.716 1.396-1.096v3.812z" fill="#FEFEFE" p-id="10528"></path><path d="M897.548 502.748l-1.98 4.096c-6.852-6.036 0.92-16.512-6.772-22.3-6.152-26.5-15.792-51.064-38.02-68.66-34.344-43.964-80.944-64.032-135.184-64.436-136.348-1.02-272.712-0.756-409.072-0.12-54.6 0.252-100.252 21.496-134.94 64.532-15.344 14.824-26.048 32.312-30.56 53.348-10.832 5.668-1.576 21.632-13.668 26.652l-1.104-11.292c5.792-46.264 23.116-86.888 58.272-118.704 32.112-29.06 69.768-45.796 113.164-45.96 142.968-0.544 285.94-0.156 428.916-0.244 24.624-0.016 47.472 7.348 70.16 15.712 12.84 13.472 31.416 18.52 45.136 30.708 16.108 17.12 29.664 36.1 41.256 56.516 5.98 19.064 12.54 37.992 14.688 58.02-0.1 7.38-0.204 14.752-0.292 22.132z" fill="#171615" p-id="10529"></path><path d="M841.896 366.076c-13.72-12.188-32.296-17.236-45.136-30.708-0.528-30.412 12.644-58.72 13.584-89.06 0.248-7.876 1.74-16.104 2.12-24.232 1.248-26.116 14.344-38.748 40.096-38.768 5.676 0 11.344 0.056 17.016 0.088 26.008 25.948 50.316 53.172 65.124 87.468-9.832-0.74-17.376-7.004-25.908-10.852-23.02-10.372-39.084-5.024-45.876 18.408-8.336 28.832-14.128 58.404-21.02 87.656z" fill="#E0E0E0" p-id="10530"></path><path d="M568.436 701.892l64.72-0.08c15.304 0.04 30.6 0.08 45.9 0.112-10.212 17.324-29.608 20.664-45.612 27.828-87.888 39.4-180.292 58.108-276.584 51.792-62.5-4.104-123.624-16.884-181.684-41.712-6.376-2.724-12.908-5.66-19.656-6.828-12.832-2.224-20.844 3.06-21.736 16.948-1.64 25.692 6.616 48.276 20 69.872 7.416 11.96 20.304 21.776 18.096 38.412C139.26 827.08 111.028 792.6 91.288 751.7c6.752-5.052 4.224-11.164 1.768-17.08-4.716-11.376-5.176-23.232-5.208-35.356-0.032-13.112 0.008-26.828 12.992-33.376 12.236-6.168 24.332-0.148 35.752 6.124 65.592 36.056 136.092 57.592 210.332 63.588 66.364 5.364 132.512-0.584 196.688-20.044 8.708-2.636 21.1-1.024 24.824-13.664z" fill="#CCCCCC" p-id="10531"></path><path d="M568.436 701.892c-3.728 12.64-16.116 11.032-24.832 13.676-64.176 19.46-130.324 25.408-196.688 20.044-74.24-5.996-144.736-27.536-210.332-63.588-11.42-6.272-23.516-12.292-35.752-6.124-12.984 6.548-13.024 20.26-12.992 33.376 0.032 12.124 0.492 23.98 5.208 35.356 2.456 5.916 4.984 12.028-1.768 17.08-25.66-38.38-42.032-80.396-49.352-125.96 7.628-5.176 8.02-14.12 10.708-21.64 10.444-29.228 26.34-33.796 51.788-17.544 33.38 21.324 62.084 47.64 90.492 74.9 27.924 26.796 63.104 39.84 101.628 40.172 90.628 0.78 181.264 0.252 271.892 0.252z" fill="#D2D2D2" p-id="10532"></path><path d="M252.068 922.268c1.14-10.624-6.868-15.964-13.272-21.74-22.192-19.988-33.96-46.984-48.948-71.796-4.14-6.852-4.472-14.592 0.94-21.404 7.192-9.036 17.6-7.752 26.4-5.432 25.64 6.772 51.452 12.48 77.628 16.508 16.788 2.588 33.42 7.228 50.672 5.46 14.42-1.472 27.66 1.644 39.8 9.528-1.052 9.56-2.1 19.112-3.16 28.676-34.668-0.704-68.984-4.676-103.14-10.58-9.76-1.696-20.924-4.128-27.76 6.384-6.204 9.536-2.904 19.212 1.492 28.8 11.044 24.112 31.704 38.584 51.996 53.728 6.124 4.568 16.124 6.34 15.804 17.124-24.612-8.268-46.732-21.364-68.452-35.256z m232.552-89.832c-2.044-15.42 11.48-13.792 19.072-15.132 44.38-7.812 87.3-19.976 128.484-38.352 48.524-21.648 96.792-43.656 135.584-81.536 2.528-2.464 6.54-3.608 10.048-4.84 54.364-18.964 89.048-57.576 110.788-109.652 8.548-20.46 26.348-34.68 38.696-52.784 9.476-13.892 44.212-2.032 49.46 14.908a168.084 168.084 0 0 1 7.48 56.028c-0.204 6.196-3.456 14.768 7.132 16.844-3.144 22.62-10.1 44.104-19.284 64.932-8.824-1.692-5.704-7.048-4.896-12.968 4.208-30.604 8.26-61.264-7.968-90.228-9.8-17.488-19.188-18.868-30.808-2.144-45.984 66.116-102.672 121.44-168.736 167.02-43.332 29.912-90.128 53.704-139.744 71.564-8.788 3.172-14.824 6.928-13.42 17.272l-121.888-0.932z" fill="#BABABA" p-id="10533"></path><path d="M841.896 366.076c6.896-29.252 12.684-58.824 21.028-87.656 6.792-23.432 22.856-28.78 45.876-18.408 8.532 3.848 16.076 10.116 25.908 10.852 14.872 16.236 22.028 36.716 30.312 56.408 11.516 27.388 22.14 55.176 26.508 84.848-14.876-9.332-21.084-25.916-31.688-38.792-10.096-12.256-20.552-20.416-36.752-18.256-16.248 2.16-17.688 16.612-21.468 28.196-4.564 13.952-9.484 27.512-18.44 39.32-11.62-20.412-25.176-39.392-41.284-56.512z" fill="#D2D2D2" p-id="10534"></path><path d="M668.024 850.544c58.492-23.684 111.78-56.312 161.216-95.208 20.824-16.384 40.052-34.78 60.188-52.048 3.796-3.248 8.32-5.752 12.772-8.088 4.92-2.6 9.916-6.132 15.452-0.504 4.424 4.488 5.416 9.344 4.692 15.544-4.516 38.648-17.48 75.176-43.02 103.468-31.48 34.864-61.06 72.304-103.74 96.2-32.284 18.08-63.412 38.136-98.592 50.316-44.668 15.46-89.628 28.352-137.872 28.032-46.96-0.316-93.812 1.068-138.184-17.588-23.964-10.08-46.96-21.936-64.928-41.628-4.912-5.388-9.984-10.648-6.672-18.308 3.06-7.076 10.132-9.704 17.168-10.18 10.744-0.736 21.576-0.644 32.356-0.312 47.564 1.46 94.544-4.428 141.252-12.172 8.08-1.336 22.416 1.5 21.656-14.816 34.252-0.228 68.58-1.804 102.748-0.148 18.536 0.884 25.428-4.84 23.508-22.56z" fill="#A4A4A4" p-id="10535"></path><path d="M668.024 850.544c1.92 17.724-4.972 23.444-23.504 22.556-34.168-1.656-68.492-0.08-102.748 0.148l-141.872-0.732c-7.96-0.04-17.26 2.256-17.768-10.444l3.16-28.676c33.108-0.324 66.22-0.632 99.332-0.956 40.624 0.304 81.256 0.62 121.892 0.928 14.324 0.136 28.748 1.284 42.972 0.104 13.6-1.132 19.908 3.148 18.536 17.072z" fill="#171615" p-id="10536"></path><path d="M278.608 678.48c-65.004-12.6-113.576-45.736-137.296-109.904 4.888-5.968 11.696-3.88 17.776-3.88 234.168-0.092 468.34-0.1 702.508 0.016 7.212 0.004 15.612-2.696 20.596 5.832-26.58 60.68-72.452 95.944-138.26 104.94-4.832-5.548-8.82-5.564-11.68 1.784-24.104 0.66-48.224 1.308-72.34 1.968-100.384-0.296-200.764-0.564-301.148-0.908-19.048-0.072-38.092-0.468-57.132-0.72-8.04-9.536-15.756-10.348-23.024 0.872z" fill="#231916" p-id="10537"></path><path d="M882.196 570.548c-4.984-8.528-13.388-5.828-20.596-5.832-234.168-0.116-468.34-0.108-702.508-0.016-6.08 0-12.888-2.088-17.776 3.88-10.156-9.316-7.152-22.604-10.28-34.052 4.948 0.584 9.892 1.592 14.848 1.664 39.276 0.584 78.928 8.336 117.464-5.868 12.792 11.696 27.88 15.62 45.044 14.904 18.836-0.792 37.772-1.024 56.572 0.044 20.124 1.148 37.152-3.952 50.748-19.144 3.532 4.964 8.844 4.16 13.832 4.16 57.016 0.032 114.032 0.032 171.048 0 4.988 0 10.3 0.788 13.82-4.192 13.568 15.208 30.576 20.324 50.692 19.176 18.788-1.068 37.7-0.46 56.548-0.156 16.836 0.264 32.344-2.936 45.12-14.784 6.764 4.2 14.304 3.828 21.836 3.812 34.444-0.048 68.888 0 103.328 0.016-2.18 12.412-1.76 25.524-9.74 36.388z" fill="#281F1C" p-id="10538"></path><path d="M891.932 534.156c-34.44-0.016-68.884-0.064-103.328-0.016-7.532 0.016-15.072 0.388-21.836-3.812 8.472-12.768 8.776-26.94 7.084-41.448 5.264-6.544 12.652-4.2 19.244-4.244 31.9-0.216 63.8-0.092 95.696-0.092 7.696 5.784-0.08 16.264 6.772 22.3 0.364 4.128 0.728 8.264 1.084 12.392-4.068 4.18-4.16 9.624-4.716 14.92z" fill="#2F2725" p-id="10539"></path><path d="M659.916 679.244c24.116-0.66 48.236-1.308 72.34-1.968l7.872 1c-4.468 15.576-13.888 24.428-31.008 23.7-9.996-0.42-20.036-0.056-30.064-0.048l-45.9-0.112c0.844-8.016 7.404-9.312 13.336-11.36 5.896-2.036 12.568-3.14 13.424-11.212z" fill="#D2D2D2" p-id="10540"></path><path d="M740.124 678.272l-7.872-1c2.86-7.348 6.848-7.332 11.68-1.784-1.268 0.928-2.532 1.86-3.808 2.784zM263.348 530.324c-38.536 14.204-78.188 6.452-117.464 5.868-4.956-0.072-9.9-1.084-14.848-1.664l-4.46-16.76-0.364-6.404-0.296-3.936 1.436-11.572c12.092-5.02 2.836-20.988 13.672-26.652 2.356 0.892 4.872 2.848 7.032 2.512 33.22-5.184 66.64-1.248 99.94-2.26 6.588-0.2 14.084-2.496 19.464 4.04-11.94 18.18-23.932 36.352-4.112 56.828z m15.26 148.156c7.268-11.22 14.984-10.412 23.024-0.864-7.672 0.292-15.352 0.576-23.024 0.864z" fill="#2F2725" p-id="10541"></path><path d="M897.548 502.748c0.088-7.38 0.192-14.752 0.292-22.132 17.984-3.128 18.104-20.732 26.004-32.044 5.42-7.756 5.308-20.708 18.772-21.076 14.336-0.388 20.424 10.6 26.868 20.588 12.14 18.824 20.172 38.972 18.52 61.96-29.26-0.532-58.704 4.904-87.748-2.656 0.488-0.372 1.444-0.948 1.392-1.092-0.396-0.94-1.012-1.788-1.556-2.668a6.064 6.064 0 0 0-2.544-0.88z" fill="#C1C1C1" p-id="10542"></path><path d="M125.916 507.428l0.296 3.936c-1.296-0.204-2.584-0.412-3.88-0.612l3.584-3.324z" fill="#D2D2D2" p-id="10543"></path><path d="M900.092 503.628c0.544 0.884 1.16 1.732 1.556 2.668 0.056 0.148-0.904 0.724-1.392 1.092l-0.164-3.76z" fill="#CCCCCC" p-id="10544"></path><path d="M267.46 473.5c-5.38-6.536-12.872-4.244-19.464-4.04-33.3 1.012-66.72-2.924-99.94 2.26-2.16 0.336-4.676-1.62-7.032-2.512 4.508-21.036 15.208-38.524 30.556-53.348 226.404 0.004 452.8 0.02 679.192 0.028 22.228 17.596 31.868 42.164 38.02 68.66-31.896 0-63.796-0.12-95.696 0.092-6.588 0.04-13.976-2.304-19.24 4.24-12.876-19.16-30.996-25.056-53.524-23.624-21.92 1.392-44.008 0.684-66.008 0.148-11.664-0.284-22.464 1.42-32.364 7.736l-214.188 0.084c-32.668-14.1-67.088-5.08-100.632-7.688-14.008-1.096-27.388 0.644-39.68 7.964z" fill="#3D3634" p-id="10545"></path><path d="M850.772 415.884l-679.192-0.028c34.688-43.036 80.34-64.276 134.94-64.532 136.356-0.636 272.724-0.9 409.072 0.12 54.236 0.404 100.836 20.472 135.18 64.44z" fill="#474241" p-id="10546"></path><path d="M267.46 473.5c12.292-7.32 25.672-9.06 39.684-7.972 33.54 2.612 67.964-6.412 100.636 7.68 13.276 16.048 15.624 33.728 7.924 52.912-13.588 15.196-30.616 20.296-50.74 19.148-18.8-1.068-37.736-0.836-56.572-0.044-17.164 0.72-32.248-3.208-45.044-14.904-19.82-20.472-7.828-38.644 4.112-56.82z m354.504-0.364c9.9-6.316 20.7-8.016 32.364-7.736 22 0.536 44.084 1.244 66.008-0.148 22.528-1.428 40.648 4.468 53.524 23.624 1.688 14.512 1.384 28.68-7.088 41.452-12.776 11.848-28.284 15.052-45.12 14.784-18.848-0.304-37.756-0.912-56.548 0.156-20.116 1.148-37.124-3.968-50.692-19.176-7.768-19.108-5.112-36.752 7.552-52.956z" fill="#66605F" p-id="10547"></path><path d="M621.964 473.136c-12.664 16.204-15.32 33.848-7.556 52.96-3.52 4.98-8.832 4.192-13.82 4.192a152382.4 152382.4 0 0 1-171.048 0c-4.992 0-10.304 0.804-13.832-4.16 7.692-19.188 5.344-36.868-7.928-52.916l214.184-0.076z" fill="#2F2725" p-id="10548"></path></svg>